<svg width="143" height="28" viewBox="0 0 143 28" fill="none" xmlns="http://www.w3.org/2000/svg">
<g clip-path="url(#clip0_281_249)">
<path d="M37.0577 5.40005H40.9349L45.6343 12.2669C46.008 12.8135 46.4331 13.4721 46.9142 14.2382C47.3954 15.0043 47.7924 15.6396 48.0961 16.1348L48.5445 16.8775V6.97897C48.5445 6.10076 49.2546 5.40005 50.1234 5.40005H52.2582V22.5812H48.3296L43.9479 16.1862C43.4668 15.4948 42.9623 14.7427 42.4391 13.9066C41.9112 13.0751 41.4955 12.4164 41.1918 11.9119L40.7668 11.2019V21.0023C40.7668 21.8805 40.0567 22.5812 39.1878 22.5812H37.053V5.40005H37.0624H37.0577Z" fill="#242B61"/>
<path d="M60.5405 17.8912C61.5355 18.9656 62.7828 19.5122 64.2963 19.5122C65.8098 19.5122 67.0243 18.975 68.01 17.8912C68.9957 16.8075 69.5002 15.5135 69.5002 13.9953C69.5002 12.4771 69.0097 11.2019 68.01 10.1181C67.0243 9.03436 65.7864 8.49715 64.2963 8.49715C62.8061 8.49715 61.5495 9.03436 60.5405 10.1181C59.5455 11.2019 59.041 12.4818 59.041 13.9953C59.041 15.5088 59.5315 16.8075 60.5405 17.8912ZM57.7471 7.7077C59.4661 5.98864 61.643 5.13379 64.2636 5.13379C66.8842 5.13379 69.047 5.98864 70.7801 7.7077C72.4992 9.42675 73.3634 11.5195 73.3634 13.9906C73.3634 16.4618 72.4992 18.5872 70.7801 20.297C69.0611 22.016 66.8842 22.8709 64.2636 22.8709C61.643 22.8709 59.4801 22.016 57.7471 20.297C56.028 18.5779 55.1638 16.4758 55.1638 13.9906C55.1638 11.5055 56.028 9.41273 57.7471 7.7077Z" fill="#242B61"/>
<path d="M75.4795 19.2599C75.8625 18.4378 76.8388 18.1108 77.647 18.5265C78.9923 19.2179 80.4171 19.5682 81.8932 19.5682C82.7901 19.5682 83.5702 19.372 84.2242 18.9656C84.8829 18.5732 85.2099 18.0781 85.2099 17.4988C85.2099 16.9196 84.9343 16.5038 84.3784 16.1955C83.8178 15.9012 83.0424 15.635 82.0334 15.4294C81.2906 15.2519 80.6553 15.0884 80.1041 14.9389C79.5669 14.7848 78.9876 14.5652 78.3617 14.2709C77.7497 13.9766 77.2359 13.659 76.8528 13.3086C76.4698 12.9583 76.1428 12.5098 75.8672 11.9493C75.6056 11.4027 75.4748 10.7768 75.4748 10.0901C75.4748 8.51117 76.1008 7.29662 77.3573 6.43242C78.6186 5.56823 80.1274 5.12912 81.8885 5.12912C84.2429 5.12912 86.3357 5.74107 88.1715 6.95561L87.5128 8.34767C87.1531 9.11377 86.2516 9.45478 85.4761 9.12311C84.3363 8.65131 83.1451 8.41307 81.8839 8.41307C81.2486 8.41307 80.646 8.53453 80.0667 8.78678C79.4968 9.03903 79.2025 9.45478 79.2025 10.0574C79.2025 10.5712 79.4548 10.9683 79.9686 11.2392C80.4825 11.5148 81.2813 11.7671 82.379 11.996C86.7467 12.9723 88.9282 14.7988 88.9282 17.4801C88.9282 19.2085 88.2276 20.5352 86.8168 21.4554C85.4154 22.3757 83.7524 22.8335 81.8465 22.8335C79.0764 22.8335 76.7454 22.0581 74.8722 20.5025L75.4748 19.2646L75.4795 19.2599Z" fill="#242B61"/>
<path d="M95.9867 8.58593H91.7404C90.8622 8.58593 90.1615 7.87589 90.1615 7.00702V5.40942H103.956C104.834 5.40942 105.535 6.11947 105.535 6.98834V8.58593H99.7004V22.5906H95.9867V8.58593Z" fill="#242B61"/>
<path d="M115.419 15.4715C116.536 15.4715 117.423 15.1445 118.082 14.4858C118.75 13.8271 119.077 13.0097 119.077 12.024C119.077 11.0384 118.75 10.2162 118.091 9.56222C117.433 8.90356 116.559 8.57657 115.443 8.57657H111.622V15.4761H115.419V15.4715ZM107.908 5.40005H115.256C117.699 5.40005 119.591 6.02601 120.927 7.27326C122.263 8.52051 122.94 10.1088 122.94 12.038C122.94 13.2105 122.655 14.2709 122.085 15.2472C121.516 16.2235 120.726 17.0083 119.698 17.6109L123.277 22.5952H118.745L116.097 18.6199C115.518 18.6526 114.686 18.676 113.602 18.676H111.608V21.021C111.608 21.8992 110.898 22.5999 110.029 22.5999H107.894V5.40005H107.903H107.908Z" fill="#242B61"/>
<path d="M136.763 16.9429L135.385 13.7898L133.666 9.33332C133.063 11.0944 132.493 12.5846 131.97 13.7898L130.592 16.9429H136.767H136.763ZM131.834 5.40005H135.525L143.004 22.5812H140.243C139.617 22.5812 139.052 22.2075 138.799 21.6283L138.024 19.8438H129.331L128.574 21.6189C128.322 22.1982 127.752 22.5812 127.116 22.5812H124.37L131.839 5.40005H131.834Z" fill="#242B61"/>
<path d="M23.2119 2.24691C23.3987 1.79847 23.665 1.4014 24.0013 1.06507C24.3377 0.728729 24.7347 0.462463 25.1832 0.275609C25.6129 0.0980981 26.0847 0 26.5752 0C27.0657 0 27.5375 0.0980981 27.9673 0.275609C28.4157 0.462463 28.8175 0.728729 29.1491 1.06507C29.4855 1.4014 29.7517 1.80314 29.9386 2.24691C30.1161 2.67668 30.2142 3.14848 30.2142 3.63897V17.9379C30.3076 20.5399 29.5789 22.7821 28.3317 24.4825C27.5515 25.5476 26.5706 26.3977 25.4588 26.9957C24.3423 27.5936 23.0951 27.9393 21.7871 27.9907C19.7784 28.0654 17.6296 27.4394 15.6069 25.954L11.3513 22.5439C10.9683 22.2356 10.6647 21.8665 10.4404 21.4601C10.2069 21.0397 10.0667 20.5772 10.0153 20.1054C9.96395 19.6383 10.006 19.1572 10.1415 18.6947C10.2723 18.2462 10.4871 17.8212 10.7955 17.4381C11.1038 17.0551 11.4728 16.7514 11.8792 16.5272C12.2996 16.2983 12.7621 16.1535 13.2339 16.1021C13.701 16.0507 14.1822 16.0928 14.6446 16.2282C15.0931 16.359 15.5182 16.5739 15.9012 16.8822L20.297 20.4044C20.6333 20.666 20.9977 20.7828 21.3433 20.7781C21.5769 20.7781 21.8105 20.7174 22.0253 20.6099C22.2356 20.5025 22.4271 20.353 22.5766 20.1615C22.8055 19.8719 22.9409 19.4935 22.9409 19.0497V3.64364C22.9409 3.15315 23.039 2.68135 23.2165 2.25159L23.2119 2.24691Z" fill="#E3301C"/>
<path d="M7.01168 25.7531C6.82483 26.2015 6.55856 26.6033 6.22223 26.9349C5.89056 27.2713 5.48883 27.5375 5.04038 27.7244C4.61061 27.9019 4.13881 28 3.64832 28C3.15783 28 2.68602 27.9019 2.25626 27.7244C1.81248 27.5375 1.41075 27.2713 1.07441 26.9349C0.738074 26.5986 0.471808 26.1969 0.284954 25.7531C0.107444 25.3233 0.00934552 24.8515 0.00934552 24.361V10.0621C-0.0840812 7.4648 0.639976 5.22256 1.88722 3.51752C2.66734 2.45245 3.64832 1.60227 4.7601 1.00434C5.88122 0.401735 7.12847 0.0560563 8.43644 0.00934289C10.4451 -0.0653985 12.5939 0.560561 14.6166 2.04605L18.8722 5.45612C19.2553 5.76443 19.5589 6.13347 19.7831 6.54455C20.012 6.96497 20.1568 7.42743 20.2082 7.89456C20.2596 8.3617 20.2176 8.84284 20.0821 9.30531C19.9513 9.74908 19.7364 10.1788 19.4281 10.5619C19.1198 10.9449 18.7508 11.2486 18.3443 11.4728C17.9239 11.7017 17.4615 11.8465 16.9897 11.8979C16.5225 11.9493 16.0414 11.9072 15.5789 11.7718C15.1305 11.641 14.7054 11.4214 14.3223 11.1178L9.9266 7.5956C9.59026 7.334 9.2259 7.21722 8.88022 7.22189C8.64665 7.22189 8.41308 7.28262 8.1982 7.39006C7.98799 7.4975 7.79647 7.64698 7.64698 7.83851C7.41809 8.12813 7.27795 8.50651 7.28262 8.95028V24.361C7.28262 24.8515 7.18452 25.3233 7.00701 25.7531" fill="#E3301C"/>
</g>
<defs>
<clipPath id="clip0_281_249">
<rect width="143.004" height="28" fill="white"/>
</clipPath>
</defs>
</svg>
